<?xml version="1.0" encoding="UTF-8"?>
<svg id="Layer_1" data-name="Layer 1" xmlns="http://www.w3.org/2000/svg" viewBox="0 0 100 100">
  <defs>
    <style>
      .cls-1 {
        fill: #fcb415;
        stroke-width: 0px;
      }
    </style>
  </defs>
  <g id="beQhxX">
    <path class="cls-1" d="m10.32,58.64c-1.22,0-2.32,0-3.43,0-.8,0-1.45-.23-1.77-1.02-.31-.77.03-1.37.58-1.88,5.13-4.71,9.23-10.29,13.13-15.99,4.77-6.95,9.3-14.06,13.87-21.14.69-1.08,1.46-1.45,2.68-1.27,8.57,1.28,17.19,1.69,25.85,1.36,2.28-.09,4.56-.25,6.84-.43.96-.08,1.62.23,2.12,1.05,7.45,12.27,15.71,23.99,24.21,35.55,1.09,1.48.65,2.62-1.14,2.98-.48.1-.97.18-1.52.28,0,.37,0,.69,0,1,0,2.66,0,5.33,0,7.99,0,1.3-.32,1.71-1.57,2.06-4.73,1.33-9.46,2.66-14.19,3.99-3.13.88-6.26,1.74-9.37,2.65-.35.1-.71.43-.92.75-.44.68-1.03.92-1.79.85-2.1-.2-4.2-.4-6.3-.61-5.65-.56-11.31-1.13-16.96-1.69-6.18-.62-12.35-1.24-18.53-1.85-3.21-.32-6.41-.65-9.62-.95-1.7-.16-2.17-.62-2.17-2.3,0-3.45,0-6.91,0-10.37,0-.31,0-.63,0-1.03Zm27.02-37.77c.12.26.21.44.3.62,4.04,7.93,8.33,15.72,13.21,23.16,3.47,5.29,7.13,10.45,11.57,15,.36.37.67.51,1.21.41,7.88-1.46,15.77-2.9,23.66-4.34,1.1-.2,2.19-.41,3.37-.63-.27-.39-.45-.66-.64-.91-7.3-10.04-14.39-20.23-20.95-30.77-1.25-2.01-1.25-1.98-3.62-1.8-6.47.48-12.94.47-19.41.02-2.86-.2-5.71-.49-8.71-.75ZM10.41,55.62c.47,0,.69,0,.91,0,1.77,0,2.16.4,2.17,2.16,0,1.73.03,3.45-.01,5.18-.02.64.18.88.82.92,1.52.1,3.04.22,4.55.42.62.08.96-.11,1.32-.56,2.58-3.22,4.16-6.96,5.58-10.78,2.36-6.36,4.11-12.91,5.61-19.53.7-3.09,1.32-6.2,1.97-9.3-3.67,5.32-7.19,10.71-10.82,16-3.66,5.33-7.54,10.5-12.09,15.48Zm52.13,8.06c-.6-.38-1.18-.6-1.54-1.01-2.18-2.4-4.43-4.76-6.44-7.3-5.69-7.2-10.41-15.05-14.84-23.07-.16-.28-.32-.56-.6-1.03,0,.37-.02.49,0,.6,1.91,9.13,4.01,18.2,7.23,26.98.99,2.71,2.09,5.4,3.99,7.66.55.66,1.2,1.03,2.1,1.08,1.58.09,3.15.3,4.72.45,1.77.17,3.54.33,5.38.5v-4.87Zm3.3,8.96c.15.02.21.04.26.02,7.33-2.03,14.65-4.05,21.97-6.11.23-.07.49-.53.5-.81.05-1.99.05-3.98.06-5.97,0-.31,0-.62,0-1.07-7.68,1.41-15.23,2.79-22.79,4.17v9.77Zm-31.97-6.81v-28.66c-2.62,9.49-5.04,19.04-10.42,27.58,3.5.36,6.92.71,10.42,1.08Zm3.26-27.55v27.87c3.27.3,6.47.59,9.77.9-5.06-9.06-7.22-18.97-9.77-28.77Zm-23.51,31.07c16.37,1.61,32.67,3.2,48.99,4.81v-2.42c-16.35-1.6-32.65-3.19-48.99-4.79v2.4Z"/>
  </g>
</svg>