<?xml version="1.0" encoding="UTF-8"?>
<svg id="Layer_1" data-name="Layer 1" xmlns="http://www.w3.org/2000/svg" viewBox="0 0 100 100">
  <defs>
    <style>
      .cls-1 {
        fill: #5c1245;
        stroke-width: 0px;
      }
    </style>
  </defs>
  <g id="lJj5UE">
    <g>
      <path class="cls-1" d="m5,46.8v-5.2h7.68c.3-1.49.6-2.94.88-4.39,2.05-10.49,4.11-20.98,6.13-31.48.13-.66.38-.77.97-.77,3.78.02,7.57.02,11.35,0,.59,0,.85.11.97.77,2.25,11.68,4.54,23.35,6.83,35.02.05.26.12.51.2.84h7.67v5.21H5Zm14.39-11.87c-.43,2.2-.85,4.37-1.29,6.61h16.48c-.44-2.23-.86-4.41-1.29-6.61h-13.9Zm12.86-5.36c-.49-2.48-.96-4.9-1.44-7.31h-8.94c-.48,2.44-.95,4.86-1.43,7.31h11.81Zm-9.34-12.67h6.86c-.44-2.23-.86-4.4-1.29-6.59h-4.28c-.43,2.21-.86,4.38-1.29,6.59Z"/>
      <path class="cls-1" d="m80.17,53.2c2.4,12.26,4.77,24.41,7.15,36.6h7.68v5.24h-42.66v-5.19h7.68c.42-2.13.83-4.19,1.24-6.25,1.93-9.89,3.87-19.78,5.79-29.67.07-.38.06-.74.63-.74,4.13.02,8.26,0,12.48,0Zm-13.44,29.96c-.43,2.2-.85,4.37-1.29,6.6h16.48c-.44-2.24-.86-4.41-1.29-6.6h-13.9Zm1.05-5.37h11.81c-.48-2.47-.95-4.87-1.43-7.3h-8.95c-.48,2.43-.95,4.84-1.43,7.3Zm8.04-19.26h-4.28c-.43,2.21-.86,4.38-1.29,6.6h6.86c-.43-2.22-.86-4.4-1.29-6.6Z"/>
      <path class="cls-1" d="m65.48,15.52c-1.26,1.33-2.51,2.67-3.72,3.95-1.32-1.33-2.53-2.54-3.69-3.71,3.42-3.42,6.9-6.9,10.33-10.33,3.43,3.43,6.91,6.91,10.32,10.32-1.16,1.17-2.37,2.39-3.63,3.66-1.24-1.26-2.54-2.57-3.83-3.87-.08.02-.15.05-.23.07,0,.33,0,.66,0,.98,0,5.37.07,10.74-.05,16.1-.12,5.47-2.22,10.18-6.2,13.92-6.22,5.84-12.55,11.57-18.83,17.34-2.55,2.34-5.11,4.67-7.65,7.02-3.34,3.09-5.02,6.92-5.01,11.48,0,4.16,0,8.33,0,12.56h-5.24c-.01-.26-.04-.55-.04-.83,0-3.9,0-7.8,0-11.7,0-6.21,2.33-11.39,6.9-15.58,8.58-7.87,17.16-15.74,25.73-23.61,3.25-2.98,5.04-6.67,5.08-11.1.06-5.37.02-10.73.02-16.1,0-.14-.03-.29-.04-.43-.07-.05-.15-.1-.22-.14Z"/>
    </g>
  </g>
</svg>